<?xml version="1.0" standalone="no"?>
<svg viewBox="0 0 200 200" xmlns="http://www.w3.org/2000/svg">
  <path fill="rgba(255, 192, 203, 0.2)" d="M33.7,-57.6C45.8,-51.4,59.2,-46.6,67.1,-37.3C75,-27.9,77.4,-14,77.5,0C77.6,14,75.3,28.1,67.6,37.9C60,47.8,47.1,53.5,34.9,57.4C22.8,61.4,11.4,63.5,-2.5,67.9C-16.4,72.3,-32.8,78.8,-45.3,75C-57.7,71.2,-66.1,57.1,-69.3,42.9C-72.4,28.7,-70.4,14.3,-67.1,1.9C-63.8,-10.5,-59.2,-21,-55.9,-35C-52.5,-48.9,-50.5,-66.4,-41.3,-74.3C-32.2,-82.2,-16.1,-80.6,-2.7,-76C10.8,-71.4,21.6,-63.8,33.7,-57.6Z" transform="translate(100 100)" />
</svg>
