<svg width="96" height="16" viewBox="0 0 96 16" fill="none" xmlns="http://www.w3.org/2000/svg">
<path d="M1.55664 6.89118C1.34781 6.69806 1.46125 6.34893 1.74371 6.31544L5.74609 5.84071C5.86122 5.82706 5.96121 5.75477 6.00977 5.6495L7.69792 1.98964C7.81705 1.73135 8.18425 1.7313 8.30339 1.98959L9.99154 5.64942C10.0401 5.75469 10.1394 5.82718 10.2546 5.84083L14.2572 6.31544C14.5396 6.34893 14.6527 6.69816 14.4439 6.89128L11.4852 9.62794C11.4001 9.70665 11.3622 9.8238 11.3848 9.93751L12.17 13.8906C12.2254 14.1696 11.9285 14.3858 11.6803 14.2469L8.16343 12.2777C8.06227 12.2211 7.93938 12.2214 7.83822 12.278L4.32096 14.2464C4.07275 14.3853 3.77529 14.1696 3.83073 13.8906L4.6161 9.93776C4.63869 9.82405 4.60089 9.70662 4.51578 9.62792L1.55664 6.89118Z" fill="#073A38"/>
<path d="M1.55664 6.89118C1.34781 6.69806 1.46125 6.34893 1.74371 6.31544L5.74609 5.84071C5.86122 5.82706 5.96121 5.75477 6.00977 5.6495L7.69792 1.98964C7.81705 1.73135 8.18425 1.7313 8.30339 1.98959L9.99154 5.64942C10.0401 5.75469 10.1394 5.82718 10.2546 5.84083L14.2572 6.31544C14.5396 6.34893 14.6527 6.69816 14.4439 6.89128L11.4852 9.62794C11.4001 9.70665 11.3622 9.8238 11.3848 9.93751L12.17 13.8906C12.2254 14.1696 11.9285 14.3858 11.6803 14.2469L8.16343 12.2777C8.06227 12.2211 7.93938 12.2214 7.83822 12.278L4.32096 14.2464C4.07275 14.3853 3.77529 14.1696 3.83073 13.8906L4.6161 9.93776C4.63869 9.82405 4.60089 9.70662 4.51578 9.62792L1.55664 6.89118Z" fill="black" fill-opacity="0.2"/>
<path d="M1.55664 6.89118C1.34781 6.69806 1.46125 6.34893 1.74371 6.31544L5.74609 5.84071C5.86122 5.82706 5.96121 5.75477 6.00977 5.6495L7.69792 1.98964C7.81705 1.73135 8.18425 1.7313 8.30339 1.98959L9.99154 5.64942C10.0401 5.75469 10.1394 5.82718 10.2546 5.84083L14.2572 6.31544C14.5396 6.34893 14.6527 6.69816 14.4439 6.89128L11.4852 9.62794C11.4001 9.70665 11.3622 9.8238 11.3848 9.93751L12.17 13.8906C12.2254 14.1696 11.9285 14.3858 11.6803 14.2469L8.16343 12.2777C8.06227 12.2211 7.93938 12.2214 7.83822 12.278L4.32096 14.2464C4.07275 14.3853 3.77529 14.1696 3.83073 13.8906L4.6161 9.93776C4.63869 9.82405 4.60089 9.70662 4.51578 9.62792L1.55664 6.89118Z" fill="black" fill-opacity="0.2"/>
<path d="M1.55664 6.89118C1.34781 6.69806 1.46125 6.34893 1.74371 6.31544L5.74609 5.84071C5.86122 5.82706 5.96121 5.75477 6.00977 5.6495L7.69792 1.98964C7.81705 1.73135 8.18425 1.7313 8.30339 1.98959L9.99154 5.64942C10.0401 5.75469 10.1394 5.82718 10.2546 5.84083L14.2572 6.31544C14.5396 6.34893 14.6527 6.69816 14.4439 6.89128L11.4852 9.62794C11.4001 9.70665 11.3622 9.8238 11.3848 9.93751L12.17 13.8906C12.2254 14.1696 11.9285 14.3858 11.6803 14.2469L8.16343 12.2777C8.06227 12.2211 7.93938 12.2214 7.83822 12.278L4.32096 14.2464C4.07275 14.3853 3.77529 14.1696 3.83073 13.8906L4.6161 9.93776C4.63869 9.82405 4.60089 9.70662 4.51578 9.62792L1.55664 6.89118Z" stroke="#073A38" stroke-linecap="round" stroke-linejoin="round"/>
<path d="M1.55664 6.89118C1.34781 6.69806 1.46125 6.34893 1.74371 6.31544L5.74609 5.84071C5.86122 5.82706 5.96121 5.75477 6.00977 5.6495L7.69792 1.98964C7.81705 1.73135 8.18425 1.7313 8.30339 1.98959L9.99154 5.64942C10.0401 5.75469 10.1394 5.82718 10.2546 5.84083L14.2572 6.31544C14.5396 6.34893 14.6527 6.69816 14.4439 6.89128L11.4852 9.62794C11.4001 9.70665 11.3622 9.8238 11.3848 9.93751L12.17 13.8906C12.2254 14.1696 11.9285 14.3858 11.6803 14.2469L8.16343 12.2777C8.06227 12.2211 7.93938 12.2214 7.83822 12.278L4.32096 14.2464C4.07275 14.3853 3.77529 14.1696 3.83073 13.8906L4.6161 9.93776C4.63869 9.82405 4.60089 9.70662 4.51578 9.62792L1.55664 6.89118Z" stroke="black" stroke-opacity="0.2" stroke-linecap="round" stroke-linejoin="round"/>
<path d="M1.55664 6.89118C1.34781 6.69806 1.46125 6.34893 1.74371 6.31544L5.74609 5.84071C5.86122 5.82706 5.96121 5.75477 6.00977 5.6495L7.69792 1.98964C7.81705 1.73135 8.18425 1.7313 8.30339 1.98959L9.99154 5.64942C10.0401 5.75469 10.1394 5.82718 10.2546 5.84083L14.2572 6.31544C14.5396 6.34893 14.6527 6.69816 14.4439 6.89128L11.4852 9.62794C11.4001 9.70665 11.3622 9.8238 11.3848 9.93751L12.17 13.8906C12.2254 14.1696 11.9285 14.3858 11.6803 14.2469L8.16343 12.2777C8.06227 12.2211 7.93938 12.2214 7.83822 12.278L4.32096 14.2464C4.07275 14.3853 3.77529 14.1696 3.83073 13.8906L4.6161 9.93776C4.63869 9.82405 4.60089 9.70662 4.51578 9.62792L1.55664 6.89118Z" stroke="black" stroke-opacity="0.2" stroke-linecap="round" stroke-linejoin="round"/>
<path d="M21.5566 6.89118C21.3478 6.69806 21.4612 6.34893 21.7437 6.31544L25.7461 5.84071C25.8612 5.82706 25.9612 5.75477 26.0098 5.6495L27.6979 1.98964C27.8171 1.73135 28.1842 1.7313 28.3034 1.98959L29.9915 5.64942C30.0401 5.75469 30.1394 5.82718 30.2546 5.84083L34.2572 6.31544C34.5396 6.34893 34.6527 6.69816 34.4439 6.89128L31.4852 9.62794C31.4001 9.70665 31.3622 9.8238 31.3848 9.93751L32.17 13.8906C32.2254 14.1696 31.9285 14.3858 31.6803 14.2469L28.1634 12.2777C28.0623 12.2211 27.9394 12.2214 27.8382 12.278L24.321 14.2464C24.0728 14.3853 23.7753 14.1696 23.8307 13.8906L24.6161 9.93776C24.6387 9.82405 24.6009 9.70662 24.5158 9.62792L21.5566 6.89118Z" fill="#073A38"/>
<path d="M21.5566 6.89118C21.3478 6.69806 21.4612 6.34893 21.7437 6.31544L25.7461 5.84071C25.8612 5.82706 25.9612 5.75477 26.0098 5.6495L27.6979 1.98964C27.8171 1.73135 28.1842 1.7313 28.3034 1.98959L29.9915 5.64942C30.0401 5.75469 30.1394 5.82718 30.2546 5.84083L34.2572 6.31544C34.5396 6.34893 34.6527 6.69816 34.4439 6.89128L31.4852 9.62794C31.4001 9.70665 31.3622 9.8238 31.3848 9.93751L32.17 13.8906C32.2254 14.1696 31.9285 14.3858 31.6803 14.2469L28.1634 12.2777C28.0623 12.2211 27.9394 12.2214 27.8382 12.278L24.321 14.2464C24.0728 14.3853 23.7753 14.1696 23.8307 13.8906L24.6161 9.93776C24.6387 9.82405 24.6009 9.70662 24.5158 9.62792L21.5566 6.89118Z" fill="black" fill-opacity="0.2"/>
<path d="M21.5566 6.89118C21.3478 6.69806 21.4612 6.34893 21.7437 6.31544L25.7461 5.84071C25.8612 5.82706 25.9612 5.75477 26.0098 5.6495L27.6979 1.98964C27.8171 1.73135 28.1842 1.7313 28.3034 1.98959L29.9915 5.64942C30.0401 5.75469 30.1394 5.82718 30.2546 5.84083L34.2572 6.31544C34.5396 6.34893 34.6527 6.69816 34.4439 6.89128L31.4852 9.62794C31.4001 9.70665 31.3622 9.8238 31.3848 9.93751L32.17 13.8906C32.2254 14.1696 31.9285 14.3858 31.6803 14.2469L28.1634 12.2777C28.0623 12.2211 27.9394 12.2214 27.8382 12.278L24.321 14.2464C24.0728 14.3853 23.7753 14.1696 23.8307 13.8906L24.6161 9.93776C24.6387 9.82405 24.6009 9.70662 24.5158 9.62792L21.5566 6.89118Z" fill="black" fill-opacity="0.2"/>
<path d="M21.5566 6.89118C21.3478 6.69806 21.4612 6.34893 21.7437 6.31544L25.7461 5.84071C25.8612 5.82706 25.9612 5.75477 26.0098 5.6495L27.6979 1.98964C27.8171 1.73135 28.1842 1.7313 28.3034 1.98959L29.9915 5.64942C30.0401 5.75469 30.1394 5.82718 30.2546 5.84083L34.2572 6.31544C34.5396 6.34893 34.6527 6.69816 34.4439 6.89128L31.4852 9.62794C31.4001 9.70665 31.3622 9.8238 31.3848 9.93751L32.17 13.8906C32.2254 14.1696 31.9285 14.3858 31.6803 14.2469L28.1634 12.2777C28.0623 12.2211 27.9394 12.2214 27.8382 12.278L24.321 14.2464C24.0728 14.3853 23.7753 14.1696 23.8307 13.8906L24.6161 9.93776C24.6387 9.82405 24.6009 9.70662 24.5158 9.62792L21.5566 6.89118Z" stroke="#073A38" stroke-linecap="round" stroke-linejoin="round"/>
<path d="M21.5566 6.89118C21.3478 6.69806 21.4612 6.34893 21.7437 6.31544L25.7461 5.84071C25.8612 5.82706 25.9612 5.75477 26.0098 5.6495L27.6979 1.98964C27.8171 1.73135 28.1842 1.7313 28.3034 1.98959L29.9915 5.64942C30.0401 5.75469 30.1394 5.82718 30.2546 5.84083L34.2572 6.31544C34.5396 6.34893 34.6527 6.69816 34.4439 6.89128L31.4852 9.62794C31.4001 9.70665 31.3622 9.8238 31.3848 9.93751L32.17 13.8906C32.2254 14.1696 31.9285 14.3858 31.6803 14.2469L28.1634 12.2777C28.0623 12.2211 27.9394 12.2214 27.8382 12.278L24.321 14.2464C24.0728 14.3853 23.7753 14.1696 23.8307 13.8906L24.6161 9.93776C24.6387 9.82405 24.6009 9.70662 24.5158 9.62792L21.5566 6.89118Z" stroke="black" stroke-opacity="0.2" stroke-linecap="round" stroke-linejoin="round"/>
<path d="M21.5566 6.89118C21.3478 6.69806 21.4612 6.34893 21.7437 6.31544L25.7461 5.84071C25.8612 5.82706 25.9612 5.75477 26.0098 5.6495L27.6979 1.98964C27.8171 1.73135 28.1842 1.7313 28.3034 1.98959L29.9915 5.64942C30.0401 5.75469 30.1394 5.82718 30.2546 5.84083L34.2572 6.31544C34.5396 6.34893 34.6527 6.69816 34.4439 6.89128L31.4852 9.62794C31.4001 9.70665 31.3622 9.8238 31.3848 9.93751L32.17 13.8906C32.2254 14.1696 31.9285 14.3858 31.6803 14.2469L28.1634 12.2777C28.0623 12.2211 27.9394 12.2214 27.8382 12.278L24.321 14.2464C24.0728 14.3853 23.7753 14.1696 23.8307 13.8906L24.6161 9.93776C24.6387 9.82405 24.6009 9.70662 24.5158 9.62792L21.5566 6.89118Z" stroke="black" stroke-opacity="0.2" stroke-linecap="round" stroke-linejoin="round"/>
<path d="M41.5566 6.89118C41.3478 6.69806 41.4612 6.34893 41.7437 6.31544L45.7461 5.84071C45.8612 5.82706 45.9612 5.75477 46.0098 5.6495L47.6979 1.98964C47.8171 1.73135 48.1842 1.7313 48.3034 1.98959L49.9915 5.64942C50.0401 5.75469 50.1394 5.82718 50.2546 5.84083L54.2572 6.31544C54.5396 6.34893 54.6527 6.69816 54.4439 6.89128L51.4852 9.62794C51.4001 9.70665 51.3622 9.8238 51.3848 9.93751L52.17 13.8906C52.2254 14.1696 51.9285 14.3858 51.6803 14.2469L48.1634 12.2777C48.0623 12.2211 47.9394 12.2214 47.8382 12.278L44.321 14.2464C44.0728 14.3853 43.7753 14.1696 43.8307 13.8906L44.6161 9.93776C44.6387 9.82405 44.6009 9.70662 44.5158 9.62792L41.5566 6.89118Z" fill="#073A38"/>
<path d="M41.5566 6.89118C41.3478 6.69806 41.4612 6.34893 41.7437 6.31544L45.7461 5.84071C45.8612 5.82706 45.9612 5.75477 46.0098 5.6495L47.6979 1.98964C47.8171 1.73135 48.1842 1.7313 48.3034 1.98959L49.9915 5.64942C50.0401 5.75469 50.1394 5.82718 50.2546 5.84083L54.2572 6.31544C54.5396 6.34893 54.6527 6.69816 54.4439 6.89128L51.4852 9.62794C51.4001 9.70665 51.3622 9.8238 51.3848 9.93751L52.17 13.8906C52.2254 14.1696 51.9285 14.3858 51.6803 14.2469L48.1634 12.2777C48.0623 12.2211 47.9394 12.2214 47.8382 12.278L44.321 14.2464C44.0728 14.3853 43.7753 14.1696 43.8307 13.8906L44.6161 9.93776C44.6387 9.82405 44.6009 9.70662 44.5158 9.62792L41.5566 6.89118Z" fill="black" fill-opacity="0.2"/>
<path d="M41.5566 6.89118C41.3478 6.69806 41.4612 6.34893 41.7437 6.31544L45.7461 5.84071C45.8612 5.82706 45.9612 5.75477 46.0098 5.6495L47.6979 1.98964C47.8171 1.73135 48.1842 1.7313 48.3034 1.98959L49.9915 5.64942C50.0401 5.75469 50.1394 5.82718 50.2546 5.84083L54.2572 6.31544C54.5396 6.34893 54.6527 6.69816 54.4439 6.89128L51.4852 9.62794C51.4001 9.70665 51.3622 9.8238 51.3848 9.93751L52.17 13.8906C52.2254 14.1696 51.9285 14.3858 51.6803 14.2469L48.1634 12.2777C48.0623 12.2211 47.9394 12.2214 47.8382 12.278L44.321 14.2464C44.0728 14.3853 43.7753 14.1696 43.8307 13.8906L44.6161 9.93776C44.6387 9.82405 44.6009 9.70662 44.5158 9.62792L41.5566 6.89118Z" fill="black" fill-opacity="0.2"/>
<path d="M41.5566 6.89118C41.3478 6.69806 41.4612 6.34893 41.7437 6.31544L45.7461 5.84071C45.8612 5.82706 45.9612 5.75477 46.0098 5.6495L47.6979 1.98964C47.8171 1.73135 48.1842 1.7313 48.3034 1.98959L49.9915 5.64942C50.0401 5.75469 50.1394 5.82718 50.2546 5.84083L54.2572 6.31544C54.5396 6.34893 54.6527 6.69816 54.4439 6.89128L51.4852 9.62794C51.4001 9.70665 51.3622 9.8238 51.3848 9.93751L52.17 13.8906C52.2254 14.1696 51.9285 14.3858 51.6803 14.2469L48.1634 12.2777C48.0623 12.2211 47.9394 12.2214 47.8382 12.278L44.321 14.2464C44.0728 14.3853 43.7753 14.1696 43.8307 13.8906L44.6161 9.93776C44.6387 9.82405 44.6009 9.70662 44.5158 9.62792L41.5566 6.89118Z" stroke="#073A38" stroke-linecap="round" stroke-linejoin="round"/>
<path d="M41.5566 6.89118C41.3478 6.69806 41.4612 6.34893 41.7437 6.31544L45.7461 5.84071C45.8612 5.82706 45.9612 5.75477 46.0098 5.6495L47.6979 1.98964C47.8171 1.73135 48.1842 1.7313 48.3034 1.98959L49.9915 5.64942C50.0401 5.75469 50.1394 5.82718 50.2546 5.84083L54.2572 6.31544C54.5396 6.34893 54.6527 6.69816 54.4439 6.89128L51.4852 9.62794C51.4001 9.70665 51.3622 9.8238 51.3848 9.93751L52.17 13.8906C52.2254 14.1696 51.9285 14.3858 51.6803 14.2469L48.1634 12.2777C48.0623 12.2211 47.9394 12.2214 47.8382 12.278L44.321 14.2464C44.0728 14.3853 43.7753 14.1696 43.8307 13.8906L44.6161 9.93776C44.6387 9.82405 44.6009 9.70662 44.5158 9.62792L41.5566 6.89118Z" stroke="black" stroke-opacity="0.2" stroke-linecap="round" stroke-linejoin="round"/>
<path d="M41.5566 6.89118C41.3478 6.69806 41.4612 6.34893 41.7437 6.31544L45.7461 5.84071C45.8612 5.82706 45.9612 5.75477 46.0098 5.6495L47.6979 1.98964C47.8171 1.73135 48.1842 1.7313 48.3034 1.98959L49.9915 5.64942C50.0401 5.75469 50.1394 5.82718 50.2546 5.84083L54.2572 6.31544C54.5396 6.34893 54.6527 6.69816 54.4439 6.89128L51.4852 9.62794C51.4001 9.70665 51.3622 9.8238 51.3848 9.93751L52.17 13.8906C52.2254 14.1696 51.9285 14.3858 51.6803 14.2469L48.1634 12.2777C48.0623 12.2211 47.9394 12.2214 47.8382 12.278L44.321 14.2464C44.0728 14.3853 43.7753 14.1696 43.8307 13.8906L44.6161 9.93776C44.6387 9.82405 44.6009 9.70662 44.5158 9.62792L41.5566 6.89118Z" stroke="black" stroke-opacity="0.2" stroke-linecap="round" stroke-linejoin="round"/>
<path d="M61.5566 6.89118C61.3478 6.69806 61.4612 6.34893 61.7437 6.31544L65.7461 5.84071C65.8612 5.82706 65.9612 5.75477 66.0098 5.6495L67.6979 1.98964C67.8171 1.73135 68.1842 1.7313 68.3034 1.98959L69.9915 5.64942C70.0401 5.75469 70.1394 5.82718 70.2546 5.84083L74.2572 6.31544C74.5396 6.34893 74.6527 6.69816 74.4439 6.89128L71.4852 9.62794C71.4001 9.70665 71.3622 9.8238 71.3848 9.93751L72.17 13.8906C72.2254 14.1696 71.9285 14.3858 71.6803 14.2469L68.1634 12.2777C68.0623 12.2211 67.9394 12.2214 67.8382 12.278L64.321 14.2464C64.0728 14.3853 63.7753 14.1696 63.8307 13.8906L64.6161 9.93776C64.6387 9.82405 64.6009 9.70662 64.5158 9.62792L61.5566 6.89118Z" fill="#073A38"/>
<path d="M61.5566 6.89118C61.3478 6.69806 61.4612 6.34893 61.7437 6.31544L65.7461 5.84071C65.8612 5.82706 65.9612 5.75477 66.0098 5.6495L67.6979 1.98964C67.8171 1.73135 68.1842 1.7313 68.3034 1.98959L69.9915 5.64942C70.0401 5.75469 70.1394 5.82718 70.2546 5.84083L74.2572 6.31544C74.5396 6.34893 74.6527 6.69816 74.4439 6.89128L71.4852 9.62794C71.4001 9.70665 71.3622 9.8238 71.3848 9.93751L72.17 13.8906C72.2254 14.1696 71.9285 14.3858 71.6803 14.2469L68.1634 12.2777C68.0623 12.2211 67.9394 12.2214 67.8382 12.278L64.321 14.2464C64.0728 14.3853 63.7753 14.1696 63.8307 13.8906L64.6161 9.93776C64.6387 9.82405 64.6009 9.70662 64.5158 9.62792L61.5566 6.89118Z" fill="black" fill-opacity="0.2"/>
<path d="M61.5566 6.89118C61.3478 6.69806 61.4612 6.34893 61.7437 6.31544L65.7461 5.84071C65.8612 5.82706 65.9612 5.75477 66.0098 5.6495L67.6979 1.98964C67.8171 1.73135 68.1842 1.7313 68.3034 1.98959L69.9915 5.64942C70.0401 5.75469 70.1394 5.82718 70.2546 5.84083L74.2572 6.31544C74.5396 6.34893 74.6527 6.69816 74.4439 6.89128L71.4852 9.62794C71.4001 9.70665 71.3622 9.8238 71.3848 9.93751L72.17 13.8906C72.2254 14.1696 71.9285 14.3858 71.6803 14.2469L68.1634 12.2777C68.0623 12.2211 67.9394 12.2214 67.8382 12.278L64.321 14.2464C64.0728 14.3853 63.7753 14.1696 63.8307 13.8906L64.6161 9.93776C64.6387 9.82405 64.6009 9.70662 64.5158 9.62792L61.5566 6.89118Z" fill="black" fill-opacity="0.2"/>
<path d="M61.5566 6.89118C61.3478 6.69806 61.4612 6.34893 61.7437 6.31544L65.7461 5.84071C65.8612 5.82706 65.9612 5.75477 66.0098 5.6495L67.6979 1.98964C67.8171 1.73135 68.1842 1.7313 68.3034 1.98959L69.9915 5.64942C70.0401 5.75469 70.1394 5.82718 70.2546 5.84083L74.2572 6.31544C74.5396 6.34893 74.6527 6.69816 74.4439 6.89128L71.4852 9.62794C71.4001 9.70665 71.3622 9.8238 71.3848 9.93751L72.17 13.8906C72.2254 14.1696 71.9285 14.3858 71.6803 14.2469L68.1634 12.2777C68.0623 12.2211 67.9394 12.2214 67.8382 12.278L64.321 14.2464C64.0728 14.3853 63.7753 14.1696 63.8307 13.8906L64.6161 9.93776C64.6387 9.82405 64.6009 9.70662 64.5158 9.62792L61.5566 6.89118Z" stroke="#073A38" stroke-linecap="round" stroke-linejoin="round"/>
<path d="M61.5566 6.89118C61.3478 6.69806 61.4612 6.34893 61.7437 6.31544L65.7461 5.84071C65.8612 5.82706 65.9612 5.75477 66.0098 5.6495L67.6979 1.98964C67.8171 1.73135 68.1842 1.7313 68.3034 1.98959L69.9915 5.64942C70.0401 5.75469 70.1394 5.82718 70.2546 5.84083L74.2572 6.31544C74.5396 6.34893 74.6527 6.69816 74.4439 6.89128L71.4852 9.62794C71.4001 9.70665 71.3622 9.8238 71.3848 9.93751L72.17 13.8906C72.2254 14.1696 71.9285 14.3858 71.6803 14.2469L68.1634 12.2777C68.0623 12.2211 67.9394 12.2214 67.8382 12.278L64.321 14.2464C64.0728 14.3853 63.7753 14.1696 63.8307 13.8906L64.6161 9.93776C64.6387 9.82405 64.6009 9.70662 64.5158 9.62792L61.5566 6.89118Z" stroke="black" stroke-opacity="0.2" stroke-linecap="round" stroke-linejoin="round"/>
<path d="M61.5566 6.89118C61.3478 6.69806 61.4612 6.34893 61.7437 6.31544L65.7461 5.84071C65.8612 5.82706 65.9612 5.75477 66.0098 5.6495L67.6979 1.98964C67.8171 1.73135 68.1842 1.7313 68.3034 1.98959L69.9915 5.64942C70.0401 5.75469 70.1394 5.82718 70.2546 5.84083L74.2572 6.31544C74.5396 6.34893 74.6527 6.69816 74.4439 6.89128L71.4852 9.62794C71.4001 9.70665 71.3622 9.8238 71.3848 9.93751L72.17 13.8906C72.2254 14.1696 71.9285 14.3858 71.6803 14.2469L68.1634 12.2777C68.0623 12.2211 67.9394 12.2214 67.8382 12.278L64.321 14.2464C64.0728 14.3853 63.7753 14.1696 63.8307 13.8906L64.6161 9.93776C64.6387 9.82405 64.6009 9.70662 64.5158 9.62792L61.5566 6.89118Z" stroke="black" stroke-opacity="0.2" stroke-linecap="round" stroke-linejoin="round"/>
<path d="M81.5566 6.89118C81.3478 6.69806 81.4612 6.34893 81.7437 6.31544L85.7461 5.84071C85.8612 5.82706 85.9612 5.75477 86.0098 5.6495L87.6979 1.98964C87.8171 1.73135 88.1842 1.7313 88.3034 1.98959L89.9915 5.64942C90.0401 5.75469 90.1394 5.82718 90.2546 5.84083L94.2572 6.31544C94.5396 6.34893 94.6527 6.69816 94.4439 6.89128L91.4852 9.62794C91.4001 9.70665 91.3622 9.8238 91.3848 9.93751L92.17 13.8906C92.2254 14.1696 91.9285 14.3858 91.6803 14.2469L88.1634 12.2777C88.0623 12.2211 87.9394 12.2214 87.8382 12.278L84.321 14.2464C84.0728 14.3853 83.7753 14.1696 83.8307 13.8906L84.6161 9.93776C84.6387 9.82405 84.6009 9.70662 84.5158 9.62792L81.5566 6.89118Z" fill="#073A38"/>
<path d="M81.5566 6.89118C81.3478 6.69806 81.4612 6.34893 81.7437 6.31544L85.7461 5.84071C85.8612 5.82706 85.9612 5.75477 86.0098 5.6495L87.6979 1.98964C87.8171 1.73135 88.1842 1.7313 88.3034 1.98959L89.9915 5.64942C90.0401 5.75469 90.1394 5.82718 90.2546 5.84083L94.2572 6.31544C94.5396 6.34893 94.6527 6.69816 94.4439 6.89128L91.4852 9.62794C91.4001 9.70665 91.3622 9.8238 91.3848 9.93751L92.17 13.8906C92.2254 14.1696 91.9285 14.3858 91.6803 14.2469L88.1634 12.2777C88.0623 12.2211 87.9394 12.2214 87.8382 12.278L84.321 14.2464C84.0728 14.3853 83.7753 14.1696 83.8307 13.8906L84.6161 9.93776C84.6387 9.82405 84.6009 9.70662 84.5158 9.62792L81.5566 6.89118Z" fill="black" fill-opacity="0.2"/>
<path d="M81.5566 6.89118C81.3478 6.69806 81.4612 6.34893 81.7437 6.31544L85.7461 5.84071C85.8612 5.82706 85.9612 5.75477 86.0098 5.6495L87.6979 1.98964C87.8171 1.73135 88.1842 1.7313 88.3034 1.98959L89.9915 5.64942C90.0401 5.75469 90.1394 5.82718 90.2546 5.84083L94.2572 6.31544C94.5396 6.34893 94.6527 6.69816 94.4439 6.89128L91.4852 9.62794C91.4001 9.70665 91.3622 9.8238 91.3848 9.93751L92.17 13.8906C92.2254 14.1696 91.9285 14.3858 91.6803 14.2469L88.1634 12.2777C88.0623 12.2211 87.9394 12.2214 87.8382 12.278L84.321 14.2464C84.0728 14.3853 83.7753 14.1696 83.8307 13.8906L84.6161 9.93776C84.6387 9.82405 84.6009 9.70662 84.5158 9.62792L81.5566 6.89118Z" fill="black" fill-opacity="0.2"/>
<path d="M81.5566 6.89118C81.3478 6.69806 81.4612 6.34893 81.7437 6.31544L85.7461 5.84071C85.8612 5.82706 85.9612 5.75477 86.0098 5.6495L87.6979 1.98964C87.8171 1.73135 88.1842 1.7313 88.3034 1.98959L89.9915 5.64942C90.0401 5.75469 90.1394 5.82718 90.2546 5.84083L94.2572 6.31544C94.5396 6.34893 94.6527 6.69816 94.4439 6.89128L91.4852 9.62794C91.4001 9.70665 91.3622 9.8238 91.3848 9.93751L92.17 13.8906C92.2254 14.1696 91.9285 14.3858 91.6803 14.2469L88.1634 12.2777C88.0623 12.2211 87.9394 12.2214 87.8382 12.278L84.321 14.2464C84.0728 14.3853 83.7753 14.1696 83.8307 13.8906L84.6161 9.93776C84.6387 9.82405 84.6009 9.70662 84.5158 9.62792L81.5566 6.89118Z" stroke="#073A38" stroke-linecap="round" stroke-linejoin="round"/>
<path d="M81.5566 6.89118C81.3478 6.69806 81.4612 6.34893 81.7437 6.31544L85.7461 5.84071C85.8612 5.82706 85.9612 5.75477 86.0098 5.6495L87.6979 1.98964C87.8171 1.73135 88.1842 1.7313 88.3034 1.98959L89.9915 5.64942C90.0401 5.75469 90.1394 5.82718 90.2546 5.84083L94.2572 6.31544C94.5396 6.34893 94.6527 6.69816 94.4439 6.89128L91.4852 9.62794C91.4001 9.70665 91.3622 9.8238 91.3848 9.93751L92.17 13.8906C92.2254 14.1696 91.9285 14.3858 91.6803 14.2469L88.1634 12.2777C88.0623 12.2211 87.9394 12.2214 87.8382 12.278L84.321 14.2464C84.0728 14.3853 83.7753 14.1696 83.8307 13.8906L84.6161 9.93776C84.6387 9.82405 84.6009 9.70662 84.5158 9.62792L81.5566 6.89118Z" stroke="black" stroke-opacity="0.2" stroke-linecap="round" stroke-linejoin="round"/>
<path d="M81.5566 6.89118C81.3478 6.69806 81.4612 6.34893 81.7437 6.31544L85.7461 5.84071C85.8612 5.82706 85.9612 5.75477 86.0098 5.6495L87.6979 1.98964C87.8171 1.73135 88.1842 1.7313 88.3034 1.98959L89.9915 5.64942C90.0401 5.75469 90.1394 5.82718 90.2546 5.84083L94.2572 6.31544C94.5396 6.34893 94.6527 6.69816 94.4439 6.89128L91.4852 9.62794C91.4001 9.70665 91.3622 9.8238 91.3848 9.93751L92.17 13.8906C92.2254 14.1696 91.9285 14.3858 91.6803 14.2469L88.1634 12.2777C88.0623 12.2211 87.9394 12.2214 87.8382 12.278L84.321 14.2464C84.0728 14.3853 83.7753 14.1696 83.8307 13.8906L84.6161 9.93776C84.6387 9.82405 84.6009 9.70662 84.5158 9.62792L81.5566 6.89118Z" stroke="black" stroke-opacity="0.2" stroke-linecap="round" stroke-linejoin="round"/>
</svg>
